# AST/ASF file generated using VICON BodyLanguage
# -----------------------------------------------
:version 1.10
:name VICON
:units
  mass 1.0
  length 0.45
  angle deg
:documentation
   .ast/.asf automatically generated from VICON data using
   VICON BodyBuilder and BodyLanguage model FoxedUp or BRILLIANT.MOD
:root
   order TX TY TZ RX RY RZ
   axis XYZ
   position 0 0 0  
   orientation 0 0 0 
:bonedata
  begin
     id 1 
     name lhipjoint
     direction 0.560651 -0.75055 0.34978 
     length 2.44936 
     axis 0 0 0  XYZ
  end
  begin
     id 2 
     name lfemur
     direction 0.34202 -0.939693 0  
     length 7.42139  
     axis 0 0 20  XYZ
    dof rx ry rz
    limits (-160.0 20.0)
           (-70.0 70.0)
           (-60.0 70.0)
  end
  begin
     id 3 
     name ltibia
     direction 0.34202 -0.939693 0   
     length 7.75674   
     axis 0 0 20   XYZ
    dof rx
    limits (-10.0 170.0)
  end
  begin
     id 4 
     name lfoot
     direction 0.0925879 -0.254383 0.962661   
     length 2.38688   
     axis -90 7.62852e-016 20   XYZ
    dof rx rz
    limits (-45.0 90.0)
           (-70.0 20.0)
  end
  begin
     id 5 
     name ltoes
     direction 1.53567e-011 -4.21973e-011 1   
     length 1.19228   
     axis -90 7.62852e-016 20   XYZ
    dof rx
    limits (-90.0 20.0)
  end
  begin
     id 6 
     name rhipjoint
     direction -0.540087 -0.762838 0.355506   
     length 2.4099  
     axis 0 0 0  XYZ 
  end
  begin
     id 7 
     name rfemur
     direction -0.34202 -0.939693 0   
     length 7.70794   
     axis 0 0 -20   XYZ
    dof rx ry rz
    limits (-160.0 20.0)
           (-70.0 70.0)
           (-70.0 60.0)
  end
  begin
     id 8 
     name rtibia
     direction -0.34202 -0.939693 0   
     length 7.66106   
     axis 0 0 -20   XYZ
    dof rx
    limits (-10.0 170.0)
 end
 begin
     id 9 
     name rfoot
     direction -0.0830975 -0.228308 0.970036   
     length 2.4989  
     axis -90 -7.62852e-016 -20   XYZ
    dof rx rz
    limits (-45.0 90.0)
           (-20.0 70.0)
  end
  begin
     id 10 
     name rtoes
     direction -1.53517e-011 -4.21842e-011 1   
     length 1.2498   
     axis -90 -7.62852e-016 -20   XYZ
    dof rx
    limits (-90.0 20.0)
  end
  begin
     id 11 
     name lowerback
     direction 0.0266356 0.99402 -0.105896   
     length 2.1545   
     axis 0 0 0   XYZ
    dof rx ry rz
    limits (-20.0 45.0)
           (-30.0 30.0)
           (-30.0 30.0)
  end
  begin
     id 12 
     name upperback
     direction 0.0130547 0.999192 0.0380027   
     length 2.1434   
     axis 0 0 0   XYZ
    dof rx ry rz
    limits (-20.0 45.0)
           (-30.0 30.0)
           (-30.0 30.0)
  end
  begin
     id 13 
     name thorax
     direction 0.000590299 0.996288 0.0860764   
     length 2.19049   
     axis 0 0 0   XYZ
    dof rx ry rz
    limits (-20.0 45.0)
           (-30.0 30.0)
           (-30.0 30.0)
  end
  begin
     id 14 
     name lowerneck
     direction -0.0432125 0.978219 0.203028   
     length 1.62441   
     axis 0 0 0   XYZ
    dof rx ry rz
    limits (-20.0 45.0)
           (-30.0 30.0)
           (-30.0 30.0)
  end
  begin
     id 15 
     name upperneck
     direction -0.0192309 0.991699 -0.127138   
     length 1.66666   
     axis 0 0 0   XYZ
    dof rx ry rz
    limits (-20.0 45.0)
           (-30.0 30.0)
           (-30.0 30.0)
  end
  begin
     id 16
     name head
     direction -0.00434499 0.997882 -0.0649107  
     length 1.67142  
     axis 0 0 0   XYZ
    dof rx ry rz
    limits (-20.0 45.0)
           (-30.0 30.0)
           (-30.0 30.0)
  end
  begin
     id 17 
     name lclavicle
     direction 0.970351 0.240904 -0.0196058  
     length 4.04862  
     axis 0 0 0   XYZ
    dof ry rz
    limits (-20.0 10.0)
           (0.0 20.0)
  end
  begin
     id 18 
     name lhumerus
     direction 1 -4.4896e-011 -1.40911e-018   
     length 5.58345   
     axis 180 -30 -90   XYZ
    dof rx ry rz
    limits (-60.0 90.0)
           (-90.0 90.0)
           (-90.0 90.0)
  end
  begin
     id 19
     name lradius
     direction 1 -4.48968e-011 5.88912e-028   
     length 3.71087   
     axis 180 -30 -90   XYZ
    dof rx
    limits (-10.0 170.0)
  end
  begin
     id 20
     name lwrist
     direction 1 -4.48955e-011 -8.83775e-028   
     length 1.85544   
     axis 5.52448e-016 90 90   XYZ
    dof ry
    limits (-180.0 0.0)
 end
  begin
     id 21 
     name lhand
     direction 1 -4.49035e-011 -1.76755e-027   
     length 0.562322   
     axis 1.12785e-015 90 90   XYZ
    dof rx rz
    limits (-90.0 90.0)
           (-45.0 45.0)
  end
  begin
     id 22 
     name lfingers
     direction 1 -4.48824e-011 -3.5351e-027   
     length 0.453359   
     axis 2.2557e-015 90 90   XYZ
    dof rx
    limits (0.0 90.0)
  end
  begin
     id 23
     name lthumb
     direction 0.707107 -6.34888e-011 0.707107   
     length 0.650935   
     axis -90 45 2.85299e-015   XYZ
    dof rx rz
    limits (-45.0 45.0)
           (-45.0 45.0)
  end
  begin
     id 24 
     name rclavicle
     direction -0.96165 0.268562 -0.0557131   
     length 4.05446  
     axis 0 0 0   XYZ 
    dof ry rz
    limits (-10.0 20.0)
           (-20.0 0.0)
  end
  begin
     id 25 
     name rhumerus
     direction -1 -4.48957e-011 -3.36329e-027  
     length 5.20357   
     axis 180 30 90   XYZ
    dof rx ry rz
    limits (-90.0 60.0)
           (-90.0 90.0)
           (-90.0 90.0)
  end
  begin
     id 26 
     name rradius
     direction -1 -4.48974e-011 4.51441e-027   
     length 3.64937   
     axis 180 30 90   XYZ
    dof rx
    limits (-10.0 170.0)
  end
  begin
     id 27 
     name rwrist
     direction -1 -4.4896e-011 -8.83775e-028   
     length 1.82468   
     axis 5.52448e-016 -90 -90   XYZ
    dof ry
    limits (-180.0 0.0)
  end
  begin
     id 28
     name rhand
     direction -1 -4.48996e-011 -1.76755e-027   
     length 0.617996   
     axis 1.12785e-015 -90 -90   XYZ
    dof rx rz
    limits (-90.0 90.0)
           (-45.0 45.0)
  end
  begin
     id 29
     name rfingers
     direction -1 -4.48957e-011 -3.5351e-027   
     length 0.498244   
     axis 2.2557e-015 -90 -90   XYZ
    dof rx
    limits (0.0 90.0)
  end
  begin
     id 30
     name rthumb
     direction -0.707107 -6.34931e-011 0.707107   
     length 0.715382   
     axis -90 -45 -2.85299e-015   XYZ
    dof rx rz
    limits (-45.0 45.0)
           (-45.0 45.0)
  end
:hierarchy
  begin
    root lhipjoint rhipjoint lowerback
    lhipjoint lfemur
    lfemur ltibia
    ltibia lfoot
    lfoot ltoes
    rhipjoint rfemur
    rfemur rtibia
    rtibia rfoot
    rfoot rtoes
    lowerback upperback
    upperback thorax
    thorax lowerneck lclavicle rclavicle
    lowerneck upperneck
    upperneck head
    lclavicle lhumerus
    lhumerus lradius
    lradius lwrist
    lwrist lhand lthumb
    lhand lfingers
    rclavicle rhumerus
    rhumerus rradius
    rradius rwrist
    rwrist rhand rthumb
    rhand rfingers
  end

#!OML:ASF H:\ManfredETheater\Project 1\Capture day 2\Session 1\Male1.ASF
:FULLY-SPECIFIED
:DEGREES
64
root 7.07306 15.1736 14.3904 -80.3603 -52.1824 -210.971
lowerback 50.3627 -5.26101 14.6653
upperback 6.11464 0.221708 -1.02524
thorax -13.2157 -0.676139 -7.85972
lowerneck -13.8373 -3.81034 1.86002
upperneck -4.77167 -6.08573 -11.3186
head 0.43294 -3.61147 -4.37253
rclavicle -3.18055e-014 0
rhumerus 48.6822 -10.1486 -28.9248
rradius 94.6484
rwrist 7.61451
rhand -30.2874 1.62119
rfingers 7.12502
rthumb -3.59497 -28.3282
lclavicle -3.18055e-014 0
lhumerus 82.4754 -9.20815 66.8035
lradius 61.9976
lwrist -0.686372
lhand -28.3407 12.0399
lfingers 7.12502
lthumb -1.71497 42.0127
rfemur -88.2094 -8.89611 25.495
rtibia 70.2341
rfoot -38.6137 -17.5061
rtoes -27.0509
lfemur -42.7937 -2.63239 3.43992
ltibia 65.5673
lfoot -19.702 -3.92445
ltoes -11.8711
65
root 6.80117 15.1456 13.9684 -78.2483 -51.1815 -211.302
lowerback 49.5371 -5.15796 14.262
upperback 6.18082 -0.0200343 -1.41122
thorax -13.1116 -0.731525 -8.05171
lowerneck -13.4143 -3.83735 1.59446
upperneck -4.80615 -6.09907 -11.6302
head 0.344747 -3.60746 -4.41565
rclavicle 3.18055e-014 6.52014e-014
rhumerus 48.5362 -10.6824 -27.8744
rradius 94.7021
rwrist 8.0287
rhand -30.3101 1.84455
rfingers 7.12502
rthumb -3.61691 -28.1045
lclavicle 3.18055e-014 6.52014e-014
lhumerus 83.3264 -9.90917 67.0191
lradius 61.8708
lwrist -0.589774
lhand -27.3306 12.5157
lfingers 7.12502
lthumb -0.739415 42.4941
rfemur -87.8229 -8.95467 25.3889
rtibia 68.614
rfoot -38.1488 -16.6837
rtoes -27.8782
lfemur -41.2741 -2.50021 3.4928
ltibia 66.4057
lfoot -18.7641 -3.50738
ltoes -11.0152
66
root 6.52005 15.1181 13.5431 -76.1711 -50.1794 -211.488
lowerback 48.6813 -5.04876 13.8308
upperback 6.25219 -0.267316 -1.7986
thorax -12.9931 -0.790546 -8.2269
lowerneck -12.9991 -3.83038 1.3589
upperneck -4.84067 -6.07364 -11.9782
head 0.258959 -3.58403 -4.47742
rclavicle -6.99722e-014 -2.06736e-014
rhumerus 48.3493 -11.1406 -26.9199
rradius 94.8471
rwrist 8.38946
rhand -30.3295 2.02768
rfingers 7.12502
rthumb -3.63564 -27.9211
lclavicle -6.99722e-014 -2.06736e-014
lhumerus 84.1368 -10.5769 67.1399
lradius 61.7382
lwrist -0.357865
lhand -26.3356 12.8005
lfingers 7.12502
lthumb 0.221567 42.7802
rfemur -87.4039 -9.02579 25.2953
rtibia 66.7552
rfoot -37.5215 -15.6721
rtoes -28.7269
lfemur -39.7205 -2.38825 3.51591
ltibia 67.0627
lfoot -17.7002 -3.02657
ltoes -10.3067
67
root 6.22931 15.0907 13.1135 -74.1324 -49.2095 -211.526
lowerback 47.8218 -4.93907 13.3833
upperback 6.31844 -0.515279 -2.19086
thorax -12.8737 -0.852819 -8.39539
lowerneck -12.6121 -3.78557 1.16167
upperneck -4.85615 -6.00123 -12.3616
head 0.186006 -3.53793 -4.56052
rclavicle 1.20861e-013 6.36111e-015
rhumerus 48.1199 -11.518 -26.0656
rradius 95.0967
rwrist 8.69448
rhand -30.3658 2.17484
rfingers 7.12502
rthumb -3.67074 -27.7733
lclavicle 1.20861e-013 6.36111e-015
lhumerus 84.8895 -11.2023 67.1024
lradius 61.6958
lwrist 0.0585567
lhand -25.6573 13.0859
lfingers 7.12502
lthumb 0.876739 43.0638
rfemur -86.9363 -9.09565 25.2401
rtibia 64.6426
rfoot -36.7222 -14.4365
rtoes -29.5018
lfemur -38.1395 -2.28539 3.52805
ltibia 67.5157
lfoot -16.4786 -2.55231
ltoes -9.7843
68
root 5.92941 15.0621 12.6791 -72.1176 -48.2944 -211.426
lowerback 46.982 -4.81341 12.9032
upperback 6.3624 -0.744633 -2.57128
thorax -12.7734 -0.911636 -8.5391
lowerneck -12.3106 -3.70652 0.965626
upperneck -4.7857 -5.88938 -13.1045
head 0.177808 -3.47713 -4.32513
rclavicle 6.36111e-015 -2.38542e-014
rhumerus 47.8403 -11.8247 -25.3049
rradius 95.4627
rwrist 9.03074
rhand -30.2825 2.31084
rfingers 7.12502
rthumb -3.5903 -27.6387
lclavicle 6.36111e-015 -2.38542e-014
lhumerus 85.4874 -11.7984 66.9304
lradius 61.962
lwrist 0.481314
lhand -25.5999 13.8245
lfingers 7.12502
lthumb 0.932195 43.8022
rfemur -86.4296 -9.15886 25.2468
rtibia 62.2731
rfoot -35.7217 -12.954
rtoes -30.2001
lfemur -36.555 -2.19395 3.53862
ltibia 67.7527
lfoot -15.0963 -2.10662
ltoes -9.43403
69
root 5.62114 15.0311 12.2397 -70.1103 -47.458 -211.201
lowerback 45.3368 -4.53185 12.3513
upperback 7.33382 -0.986186 -2.69456
thorax -12.8211 -1.00063 -8.79686
lowerneck -12.05 -3.58897 0.842062
upperneck -4.67941 -5.70912 -13.567
head 0.177009 -3.38352 -4.43543
rclavicle 3.81667e-014 -2.70347e-014
rhumerus 47.5037 -12.0483 -24.6517
rradius 95.9543
rwrist 9.40392
rhand -30.1274 2.45129
rfingers 7.12502
rthumb -3.44049 -27.5007
lclavicle 3.81667e-014 -2.70347e-014
lhumerus 85.8076 -12.3687 66.7115
lradius 62.6715
lwrist 0.514849
lhand -26.0009 15.2054
lfingers 7.12502
lthumb 0.544887 45.1845
rfemur -85.8927 -9.20694 25.3366
rtibia 59.6576
rfoot -34.4947 -11.2378
rtoes -30.7996
lfemur -34.9915 -2.09604 3.55877
ltibia 67.7734
lfoot -13.574 -1.69518
ltoes -9.24403
70
root 5.30491 14.9956 11.7954 -68.0938 -46.6728 -210.869
lowerback 44.5786 -4.4083 11.8401
upperback 7.26889 -1.1881 -3.10702
thorax -12.7747 -1.0594 -8.93115
lowerneck -11.9077 -3.44332 0.75412
upperneck -4.4484 -5.47266 -14.0511
head 0.235493 -3.27048 -4.56273
rclavicle -1.30403e-013 -1.43125e-014
rhumerus 47.0802 -12.1811 -24.0929
rradius 96.5804
rwrist 9.82069
rhand -29.9411 2.58546
rfingers 7.12502
rthumb -3.26061 -27.3694
lclavicle -1.30403e-013 -1.43125e-014
lhumerus 85.707 -12.9495 66.5709
lradius 63.9017
lwrist -0.148768
lhand -26.6596 16.7244
lfingers 7.12502
lthumb -0.0913176 46.7041
rfemur -85.3473 -9.25292 25.4708
rtibia 56.834
rfoot -33.0151 -9.3273
rtoes -31.3069
lfemur -33.4765 -1.99338 3.54317
ltibia 67.585
lfoot -11.9551 -1.31429
ltoes -9.10132
